<?xml version="1.0" encoding="UTF-8" standalone="no"?>
<svg
   xmlns:dc="http://purl.org/dc/elements/1.1/"
   xmlns:cc="http://creativecommons.org/ns#"
   xmlns:rdf="http://www.w3.org/1999/02/22-rdf-syntax-ns#"
   xmlns:svg="http://www.w3.org/2000/svg"
   xmlns="http://www.w3.org/2000/svg"
   xmlns:sodipodi="http://sodipodi.sourceforge.net/DTD/sodipodi-0.dtd"
   xmlns:inkscape="http://www.inkscape.org/namespaces/inkscape"
   width="444.77911"
   height="129.2984"
   viewBox="0 0 444.77911 129.2984"
   version="1.1"
   id="svg867"
   sodipodi:docname="logo_title.svg"
   inkscape:version="0.92.4 (5da689c313, 2019-01-14)">
  <metadata
     id="metadata871">
    <rdf:RDF>
      <cc:Work
         rdf:about="">
        <dc:format>image/svg+xml</dc:format>
        <dc:type
           rdf:resource="http://purl.org/dc/dcmitype/StillImage" />
        <dc:title>magiceye</dc:title>
      </cc:Work>
    </rdf:RDF>
  </metadata>
  <sodipodi:namedview
     pagecolor="#ffffff"
     bordercolor="#666666"
     borderopacity="1"
     objecttolerance="10"
     gridtolerance="10"
     guidetolerance="10"
     inkscape:pageopacity="0"
     inkscape:pageshadow="2"
     inkscape:window-width="1920"
     inkscape:window-height="1051"
     id="namedview869"
     showgrid="false"
     inkscape:zoom="2"
     inkscape:cx="278.88081"
     inkscape:cy="85.292827"
     inkscape:window-x="2391"
     inkscape:window-y="666"
     inkscape:window-maximized="1"
     inkscape:current-layer="peephole-sketch" />
  <!-- Generator: Sketch 40.3 (33839) - http://www.bohemiancoding.com/sketch -->
  <title
     id="title844">magiceye</title>
  <desc
     id="desc846">Created with Sketch.</desc>
  <defs
     id="defs848" />
  <g
     id="Page-1"
     transform="scale(0.56618113)"
     style="fill:none;fill-rule:evenodd;stroke:none;stroke-width:1">
    <g
       id="A"
       transform="translate(-188,-247)">
      <g
         id="peephole-sketch"
         transform="translate(188,247)">
        <g
           id="g929">
          <circle
             style="fill:#6f7c91"
             r="114.18466"
             cy="114.18466"
             cx="114.18466"
             id="Oval-3" />
          <path
             style="fill:#dbdee3"
             inkscape:connector-curvature="0"
             id="Combined-Shape"
             d="M 114.5,222 C 174.42289,222 223,173.42289 223,113.5 223,53.577105 174.42289,5 114.5,5 54.577105,5 6,53.577105 6,113.5 6,173.42289 54.577105,222 114.5,222 Z m 0.61648,-17.26136 c 50.04923,0 90.62216,-40.57293 90.62216,-90.62216 0,-50.049239 -40.57293,-90.622162 -90.62216,-90.622162 -50.049239,0 -90.622162,40.572923 -90.622162,90.622162 0,50.04923 40.572923,90.62216 90.622162,90.62216 z" />
          <circle
             style="fill:#535d6c"
             r="80.142044"
             cy="113.5"
             cx="114.5"
             id="Oval-2" />
          <ellipse
             style="fill:#373e48"
             ry="80.142044"
             rx="74.5"
             cy="113.5"
             cx="108.85796"
             id="ellipse853" />
          <circle
             style="fill:#97bae3"
             r="30.823864"
             cy="113.5"
             cx="114.5"
             id="circle855" />
          <circle
             style="fill:#535d6c"
             r="24.65909"
             cy="113.5"
             cx="114.5"
             id="circle857" />
          <circle
             style="fill:#718090"
             r="9.247159"
             cy="114.11648"
             cx="115.11648"
             id="circle859" />
          <path
             style="fill:#535d6c"
             inkscape:connector-curvature="0"
             id="Path-2"
             d="m 81.210227,56.784091 c -7.980608,-16.318802 -43.080948,16.0973 -43.080948,55.482949 0,39.38566 34.052779,75.46172 41.847994,59.18182 3.524522,-7.36078 -13.108484,-30.95929 -13.108484,-59.35335 0,-28.394048 17.993835,-47.842973 14.341438,-55.311419 z" />
          <path
             style="fill:#6f7c91"
             inkscape:connector-curvature="0"
             id="path862"
             d="m 103.76259,98.620066 c -2.12214,-4.339377 -11.455772,4.280474 -11.455772,14.753624 0,10.47314 9.055072,20.06623 11.127912,15.7372 0.93722,-1.95733 -3.485711,-8.23247 -3.485711,-15.78281 0,-7.55034 4.784791,-12.72206 3.813571,-14.708014 z" />
          <path
             id="path1695-4"
             d="m 92.639871,158.5835 2.49169,7.29658 c 1.167717,3.4188 3.852943,6.10401 7.271739,7.27173 l 7.29658,2.4917 -7.29658,2.49169 c -3.418796,1.16771 -6.104022,3.85293 -7.271739,7.27173 l -2.49169,7.29658 -2.49169,-7.29658 c -1.167718,-3.4188 -3.852934,-6.10402 -7.271733,-7.27173 l -7.296579,-2.49169 7.296579,-2.4917 c 3.418799,-1.16772 6.104015,-3.85293 7.271733,-7.27173 z"
             style="fill:#ccff00;fill-rule:evenodd;stroke:none;stroke-width:0.65381539"
             inkscape:connector-curvature="0" />
          <path
             id="path1695-4-1"
             d="m 59.280494,149.20232 2.75091,8.05567 c 1.2892,3.77448 4.25378,6.73905 8.02825,8.02825 l 8.05567,2.75091 -8.05567,2.75091 c -3.77447,1.2892 -6.73905,4.25377 -8.02825,8.02825 l -2.75091,8.05567 -2.75091,-8.05567 c -1.2892,-3.77448 -4.25377,-6.73905 -8.02824,-8.02825 l -8.05567,-2.75091 8.05567,-2.75091 c 3.77447,-1.2892 6.73904,-4.25377 8.02824,-8.02825 z"
             style="fill:#ccff00;fill-rule:evenodd;stroke:none;stroke-width:0.72183436"
             inkscape:connector-curvature="0" />
          <path
             id="path1695-4-9"
             d="m 61.189357,118.3542 1.899186,5.56151 c 0.890045,2.60584 2.936746,4.65254 5.542582,5.54258 l 5.561513,1.89919 -5.561513,1.89919 c -2.605836,0.89004 -4.652537,2.93674 -5.542582,5.54257 l -1.899186,5.56151 -1.899187,-5.56151 c -0.890044,-2.60583 -2.936738,-4.65253 -5.542575,-5.54257 l -5.561512,-1.89919 5.561512,-1.89919 c 2.605837,-0.89004 4.652531,-2.93674 5.542575,-5.54258 z"
             style="fill:#ccff00;fill-rule:evenodd;stroke:none;stroke-width:0.4983435"
             inkscape:connector-curvature="0" />
          <path
             id="path1695-4-0"
             d="m 151.78581,30.536821 2.7509,8.055671 c 1.28921,3.774473 4.25378,6.739045 8.02826,8.028245 l 8.05566,2.750912 -8.05566,2.750909 c -3.77448,1.289199 -6.73905,4.253771 -8.02826,8.028247 l -2.7509,8.055669 -2.75092,-8.055669 c -1.2892,-3.774476 -4.25377,-6.739048 -8.02824,-8.028247 l -8.05567,-2.750909 8.05567,-2.750912 c 3.77447,-1.2892 6.73904,-4.253772 8.02824,-8.028245 z"
             style="fill:#ccff00;fill-rule:evenodd;stroke:none;stroke-width:0.72183436"
             inkscape:connector-curvature="0" />
          <path
             id="path1695-4-8"
             d="m 166.56215,78.568446 1.56591,4.585538 c 0.73385,2.148547 2.42138,3.836074 4.56992,4.569927 l 4.58554,1.565904 -4.58554,1.565903 c -2.14854,0.733852 -3.83607,2.421379 -4.56992,4.569926 l -1.56591,4.585536 -1.5659,-4.585536 c -0.73385,-2.148547 -2.42138,-3.836074 -4.56992,-4.569926 l -4.58554,-1.565903 4.58554,-1.565904 c 2.14854,-0.733853 3.83607,-2.42138 4.56992,-4.569927 z"
             style="fill:#ccff00;fill-rule:evenodd;stroke:none;stroke-width:0.41089055"
             inkscape:connector-curvature="0" />
        </g>
        <g
           id="g957"
           transform="translate(0,-8.856114)">
          <g
             id="g1005">
            <path
               id="path842-6"
               style="font-style:normal;font-variant:normal;font-weight:600;font-stretch:normal;font-size:64px;line-height:1.25;font-family:Poppins;-inkscape-font-specification:'Poppins Semi-Bold';letter-spacing:0px;word-spacing:0px;fill:#ccff00;fill-opacity:1;fill-rule:evenodd;stroke:none;stroke-width:1.76621926"
               d="M 338.25592,75.211561 V 154.11211 H 322.4306 V 99.062585 L 302.19679,154.11211 H 288.40615 L 268.17235,99.288661 V 154.11211 H 252.23399 V 75.211561 h 19.3295 l 23.96406,59.344969 23.51191,-59.344969 z"
               inkscape:connector-curvature="0" />
            <path
               inkscape:connector-curvature="0"
               id="path842"
               style="font-style:normal;font-variant:normal;font-weight:600;font-stretch:normal;font-size:64px;line-height:1.25;font-family:Poppins;-inkscape-font-specification:'Poppins Semi-Bold';letter-spacing:0px;word-spacing:0px;fill:#373e48;fill-opacity:1;stroke:none;stroke-width:1.76621926"
               d="M 338.25592,71.622601 V 150.52315 H 322.4306 V 95.473625 L 302.19679,150.52315 H 288.40615 L 268.17235,95.699701 V 150.52315 H 252.23399 V 71.622601 h 19.3295 l 23.96406,59.344969 23.51191,-59.344969 z" />
          </g>
          <g
             id="g1001">
            <path
               id="path844-9"
               style="font-style:normal;font-variant:normal;font-weight:600;font-stretch:normal;font-size:64px;line-height:1.25;font-family:Poppins;-inkscape-font-specification:'Poppins Semi-Bold';letter-spacing:0px;word-spacing:0px;fill:#ccff00;fill-opacity:1;fill-rule:evenodd;stroke:none;stroke-width:1.76621926"
               d="m 377.21695,90.697771 q 7.91267,0 13.56457,3.730255 5.6519,3.730255 8.0257,10.060384 V 91.489037 h 15.82532 v 62.623073 h -15.82532 v -13.11242 q -2.3738,6.33013 -8.0257,10.17343 -5.6519,3.73025 -13.56457,3.73025 -7.91266,0 -14.24279,-3.84329 -6.33013,-3.84329 -9.94734,-11.07773 -3.50418,-7.34747 -3.50418,-17.18178 0,-9.83431 3.50418,-17.06874 3.61721,-7.347473 9.94734,-11.190766 6.33013,-3.843293 14.24279,-3.843293 z m 4.97368,13.903679 q -7.46051,0 -11.98203,4.86063 -4.52152,4.86064 -4.52152,13.33849 0,8.47785 4.52152,13.33849 4.52152,4.7476 11.98203,4.7476 7.23443,0 11.86899,-4.86064 4.7476,-4.97367 4.7476,-13.22545 0,-8.36481 -4.7476,-13.22545 -4.63456,-4.97367 -11.86899,-4.97367 z"
               inkscape:connector-curvature="0" />
            <path
               inkscape:connector-curvature="0"
               id="path844"
               style="font-style:normal;font-variant:normal;font-weight:600;font-stretch:normal;font-size:64px;line-height:1.25;font-family:Poppins;-inkscape-font-specification:'Poppins Semi-Bold';letter-spacing:0px;word-spacing:0px;fill:#373e48;fill-opacity:1;stroke:none;stroke-width:1.76621926"
               d="m 377.21695,87.108811 q 7.91267,0 13.56457,3.730255 5.6519,3.730255 8.0257,10.060384 V 87.900077 h 15.82532 v 62.623073 h -15.82532 v -13.11242 q -2.3738,6.33013 -8.0257,10.17343 -5.6519,3.73025 -13.56457,3.73025 -7.91266,0 -14.24279,-3.84329 -6.33013,-3.84329 -9.94734,-11.07773 -3.50418,-7.34747 -3.50418,-17.18178 0,-9.83431 3.50418,-17.06874 3.61721,-7.347473 9.94734,-11.190766 6.33013,-3.843293 14.24279,-3.843293 z m 4.97368,13.903679 q -7.46051,0 -11.98203,4.86063 -4.52152,4.86064 -4.52152,13.33849 0,8.47785 4.52152,13.33849 4.52152,4.7476 11.98203,4.7476 7.23443,0 11.86899,-4.86064 4.7476,-4.97367 4.7476,-13.22545 0,-8.36481 -4.7476,-13.22545 -4.63456,-4.97367 -11.86899,-4.97367 z" />
          </g>
          <g
             id="g997">
            <path
               id="path846-5"
               style="font-style:normal;font-variant:normal;font-weight:600;font-stretch:normal;font-size:64px;line-height:1.25;font-family:Poppins;-inkscape-font-specification:'Poppins Semi-Bold';letter-spacing:0px;word-spacing:0px;fill:#ccff00;fill-opacity:1;fill-rule:evenodd;stroke:none;stroke-width:1.76621926"
               d="m 453.60593,90.697771 q 7.91267,0 13.56457,3.730255 5.6519,3.730255 8.0257,10.060384 V 91.489037 h 15.82532 v 62.849143 q 0,8.70393 -3.50418,15.59925 -3.39114,7.00836 -10.28646,10.96469 -6.78228,3.95633 -16.50355,3.95633 -13.56456,0 -21.92938,-6.44317 -8.36481,-6.44317 -10.17342,-17.52089 h 15.71229 q 1.35645,4.74759 5.19975,7.34747 3.95633,2.71291 10.06038,2.71291 7.00836,0 11.3038,-4.18241 4.29545,-4.06936 4.29545,-12.43418 v -13.33849 q -2.3738,6.33013 -8.0257,10.17343 -5.6519,3.73025 -13.56457,3.73025 -7.91266,0 -14.24279,-3.84329 -6.33013,-3.84329 -9.94734,-11.07773 -3.50418,-7.34747 -3.50418,-17.18178 0,-9.83431 3.50418,-17.06874 3.61721,-7.347473 9.94734,-11.190766 6.33013,-3.843293 14.24279,-3.843293 z m 4.97368,13.903679 q -7.46051,0 -11.98203,4.86063 -4.52152,4.86064 -4.52152,13.33849 0,8.47785 4.52152,13.33849 4.52152,4.7476 11.98203,4.7476 7.23443,0 11.86899,-4.86064 4.7476,-4.97367 4.7476,-13.22545 0,-8.36481 -4.7476,-13.22545 -4.63456,-4.97367 -11.86899,-4.97367 z"
               inkscape:connector-curvature="0" />
            <path
               inkscape:connector-curvature="0"
               id="path846"
               style="font-style:normal;font-variant:normal;font-weight:600;font-stretch:normal;font-size:64px;line-height:1.25;font-family:Poppins;-inkscape-font-specification:'Poppins Semi-Bold';letter-spacing:0px;word-spacing:0px;fill:#373e48;fill-opacity:1;stroke:none;stroke-width:1.76621926"
               d="m 453.60593,87.108811 q 7.91267,0 13.56457,3.730255 5.6519,3.730255 8.0257,10.060384 V 87.900077 h 15.82532 v 62.849143 q 0,8.70393 -3.50418,15.59925 -3.39114,7.00836 -10.28646,10.96469 -6.78228,3.95633 -16.50355,3.95633 -13.56456,0 -21.92938,-6.44317 -8.36481,-6.44317 -10.17342,-17.52089 h 15.71229 q 1.35645,4.74759 5.19975,7.34747 3.95633,2.71291 10.06038,2.71291 7.00836,0 11.3038,-4.18241 4.29545,-4.06936 4.29545,-12.43418 v -13.33849 q -2.3738,6.33013 -8.0257,10.17343 -5.6519,3.73025 -13.56457,3.73025 -7.91266,0 -14.24279,-3.84329 -6.33013,-3.84329 -9.94734,-11.07773 -3.50418,-7.34747 -3.50418,-17.18178 0,-9.83431 3.50418,-17.06874 3.61721,-7.347473 9.94734,-11.190766 6.33013,-3.843293 14.24279,-3.843293 z m 4.97368,13.903679 q -7.46051,0 -11.98203,4.86063 -4.52152,4.86064 -4.52152,13.33849 0,8.47785 4.52152,13.33849 4.52152,4.7476 11.98203,4.7476 7.23443,0 11.86899,-4.86064 4.7476,-4.97367 4.7476,-13.22545 0,-8.36481 -4.7476,-13.22545 -4.63456,-4.97367 -11.86899,-4.97367 z" />
          </g>
          <g
             id="g993">
            <path
               id="path848-9"
               style="font-style:normal;font-variant:normal;font-weight:600;font-stretch:normal;font-size:64px;line-height:1.25;font-family:Poppins;-inkscape-font-specification:'Poppins Semi-Bold';letter-spacing:0px;word-spacing:0px;fill:#ccff00;fill-opacity:1;fill-rule:evenodd;stroke:none;stroke-width:1.76621926"
               d="m 503.65705,73.515991 q 0,-3.843293 2.71292,-6.217092 2.71291,-2.486836 7.12139,-2.486836 4.40849,0 7.1214,2.486836 2.71291,2.373799 2.71291,6.217092 0,3.730255 -2.71291,6.217092 -2.71291,2.373798 -7.1214,2.373798 -4.40848,0 -7.12139,-2.373798 -2.71292,-2.486837 -2.71292,-6.217092 z m 17.74697,17.973046 V 154.11211 H 505.46566 V 91.489037 Z"
               inkscape:connector-curvature="0" />
            <path
               inkscape:connector-curvature="0"
               id="path848"
               style="font-style:normal;font-variant:normal;font-weight:600;font-stretch:normal;font-size:64px;line-height:1.25;font-family:Poppins;-inkscape-font-specification:'Poppins Semi-Bold';letter-spacing:0px;word-spacing:0px;fill:#373e48;fill-opacity:1;stroke:none;stroke-width:1.76621926"
               d="m 503.65705,69.927031 q 0,-3.843293 2.71292,-6.217092 2.71291,-2.486836 7.12139,-2.486836 4.40849,0 7.1214,2.486836 2.71291,2.373799 2.71291,6.217092 0,3.730255 -2.71291,6.217092 -2.71291,2.373798 -7.1214,2.373798 -4.40848,0 -7.12139,-2.373798 -2.71292,-2.486837 -2.71292,-6.217092 z m 17.74697,17.973046 V 150.52315 H 505.46566 V 87.900077 Z" />
          </g>
          <g
             id="g989">
            <path
               id="path850-2"
               style="font-style:normal;font-variant:normal;font-weight:600;font-stretch:normal;font-size:64px;line-height:1.25;font-family:Poppins;-inkscape-font-specification:'Poppins Semi-Bold';letter-spacing:0px;word-spacing:0px;fill:#ccff00;fill-opacity:1;fill-rule:evenodd;stroke:none;stroke-width:1.76621926"
               d="m 564.07941,90.697771 q 12.09507,0 20.12077,6.556206 8.13874,6.556203 10.17342,17.860013 h -16.84266 q -1.01734,-4.97368 -4.63456,-7.79963 -3.61722,-2.93899 -9.15608,-2.93899 -6.33013,0 -10.62558,4.7476 -4.1824,4.63456 -4.1824,13.6776 0,9.04304 4.1824,13.79064 4.29545,4.63456 10.62558,4.63456 5.53886,0 9.15608,-2.82595 3.61722,-2.93899 4.63456,-7.91266 h 16.84266 q -2.03468,11.3038 -10.17342,17.86001 -8.0257,6.5562 -20.12077,6.5562 -9.15608,0 -16.27747,-3.84329 -7.1214,-3.95633 -11.07773,-11.19077 -3.95633,-7.23443 -3.95633,-17.06874 0,-9.83431 3.95633,-17.06874 3.95633,-7.347473 11.07773,-11.190766 7.12139,-3.843293 16.27747,-3.843293 z"
               inkscape:connector-curvature="0" />
            <path
               inkscape:connector-curvature="0"
               id="path850"
               style="font-style:normal;font-variant:normal;font-weight:600;font-stretch:normal;font-size:64px;line-height:1.25;font-family:Poppins;-inkscape-font-specification:'Poppins Semi-Bold';letter-spacing:0px;word-spacing:0px;fill:#373e48;fill-opacity:1;stroke:none;stroke-width:1.76621926"
               d="m 564.07941,87.108811 q 12.09507,0 20.12077,6.556206 8.13874,6.556203 10.17342,17.860013 h -16.84266 q -1.01734,-4.97368 -4.63456,-7.79963 -3.61722,-2.93899 -9.15608,-2.93899 -6.33013,0 -10.62558,4.7476 -4.1824,4.63456 -4.1824,13.6776 0,9.04304 4.1824,13.79064 4.29545,4.63456 10.62558,4.63456 5.53886,0 9.15608,-2.82595 3.61722,-2.93899 4.63456,-7.91266 h 16.84266 q -2.03468,11.3038 -10.17342,17.86001 -8.0257,6.5562 -20.12077,6.5562 -9.15608,0 -16.27747,-3.84329 -7.1214,-3.95633 -11.07773,-11.19077 -3.95633,-7.23443 -3.95633,-17.06874 0,-9.83431 3.95633,-17.06874 3.95633,-7.347473 11.07773,-11.190766 7.12139,-3.843293 16.27747,-3.843293 z" />
          </g>
          <g
             id="g985">
            <path
               id="path852-1"
               style="font-style:normal;font-variant:normal;font-weight:600;font-stretch:normal;font-size:64px;line-height:1.25;font-family:Poppins;-inkscape-font-specification:'Poppins Semi-Bold';letter-spacing:0px;word-spacing:0px;fill:#ccff00;fill-opacity:1;fill-rule:evenodd;stroke:none;stroke-width:1.76621926"
               d="m 621.63696,86.967516 v 20.685964 h 28.25951 v 12.2081 h -28.25951 v 21.47723 h 31.65065 v 12.7733 H 605.6986 V 74.307257 h 47.58901 v 12.660259 z"
               inkscape:connector-curvature="0" />
            <path
               inkscape:connector-curvature="0"
               id="path852"
               style="font-style:normal;font-variant:normal;font-weight:600;font-stretch:normal;font-size:64px;line-height:1.25;font-family:Poppins;-inkscape-font-specification:'Poppins Semi-Bold';letter-spacing:0px;word-spacing:0px;fill:#373e48;fill-opacity:1;stroke:none;stroke-width:1.76621926"
               d="m 621.63696,83.378556 v 20.685964 h 28.25951 v 12.2081 h -28.25951 v 21.47723 h 31.65065 v 12.7733 H 605.6986 V 70.718297 h 47.58901 v 12.660259 z" />
          </g>
          <g
             id="g981">
            <path
               id="path854-3"
               style="font-style:normal;font-variant:normal;font-weight:600;font-stretch:normal;font-size:64px;line-height:1.25;font-family:Poppins;-inkscape-font-specification:'Poppins Semi-Bold';letter-spacing:0px;word-spacing:0px;fill:#ccff00;fill-opacity:1;fill-rule:evenodd;stroke:none;stroke-width:1.76621926"
               d="m 675.82634,91.489037 17.06874,42.502303 15.82532,-42.502303 h 17.5209 L 687.9214,183.95414 H 670.28747 L 684.41723,152.3035 658.07937,91.489037 Z"
               inkscape:connector-curvature="0" />
            <path
               inkscape:connector-curvature="0"
               id="path854"
               style="font-style:normal;font-variant:normal;font-weight:600;font-stretch:normal;font-size:64px;line-height:1.25;font-family:Poppins;-inkscape-font-specification:'Poppins Semi-Bold';letter-spacing:0px;word-spacing:0px;fill:#373e48;fill-opacity:1;stroke:none;stroke-width:1.76621926"
               d="m 675.82634,87.900077 17.06874,42.502303 15.82532,-42.502303 h 17.5209 l -38.3199,92.465103 h -17.63393 l 14.12976,-31.65064 -26.33786,-60.814463 z" />
          </g>
          <g
             id="g977"
             transform="translate(-7.064877)">
            <path
               id="path856-7"
               style="font-style:normal;font-variant:normal;font-weight:600;font-stretch:normal;font-size:64px;line-height:1.25;font-family:Poppins;-inkscape-font-specification:'Poppins Semi-Bold';letter-spacing:0px;word-spacing:0px;fill:#ccff00;fill-opacity:1;fill-rule:evenodd;stroke:none;stroke-width:1.76621926"
               d="m 792.64231,120.42677 q 0,2.3738 -0.56519,5.42583 h -45.89344 q 0.33911,8.36481 4.52152,12.32114 4.18241,3.95633 10.3995,3.95633 5.53886,0 9.15608,-2.71291 3.73025,-2.71291 4.74759,-7.34747 h 16.84267 q -1.24342,6.55621 -5.31279,11.75595 -4.06937,5.19975 -10.51253,8.13874 -6.33013,2.93899 -14.12976,2.93899 -9.15608,0 -16.27747,-3.84329 -7.1214,-3.95633 -11.07773,-11.19077 -3.95633,-7.23443 -3.95633,-17.06874 0,-9.83431 3.95633,-17.06874 3.95633,-7.347473 11.07773,-11.190766 7.12139,-3.843293 16.27747,-3.843293 9.26912,0 16.16444,3.843293 7.00836,3.843293 10.73861,10.625576 3.8433,6.66924 3.8433,15.26013 z m -16.0514,-1.58253 q 0.33911,-7.68659 -4.06937,-11.64292 -4.29545,-3.95633 -10.62558,-3.95633 -6.44316,0 -10.85165,3.95633 -4.40848,3.95633 -4.86063,11.64292 z"
               inkscape:connector-curvature="0" />
            <path
               inkscape:connector-curvature="0"
               id="path856"
               style="font-style:normal;font-variant:normal;font-weight:600;font-stretch:normal;font-size:64px;line-height:1.25;font-family:Poppins;-inkscape-font-specification:'Poppins Semi-Bold';letter-spacing:0px;word-spacing:0px;fill:#373e48;fill-opacity:1;stroke:none;stroke-width:1.76621926"
               d="m 792.64231,116.83781 q 0,2.3738 -0.56519,5.42583 h -45.89344 q 0.33911,8.36481 4.52152,12.32114 4.18241,3.95633 10.3995,3.95633 5.53886,0 9.15608,-2.71291 3.73025,-2.71291 4.74759,-7.34747 h 16.84267 q -1.24342,6.55621 -5.31279,11.75595 -4.06937,5.19975 -10.51253,8.13874 -6.33013,2.93899 -14.12976,2.93899 -9.15608,0 -16.27747,-3.84329 -7.1214,-3.95633 -11.07773,-11.19077 -3.95633,-7.23443 -3.95633,-17.06874 0,-9.83431 3.95633,-17.06874 3.95633,-7.347473 11.07773,-11.190766 7.12139,-3.843293 16.27747,-3.843293 9.26912,0 16.16444,3.843293 7.00836,3.843293 10.73861,10.625576 3.8433,6.66924 3.8433,15.26013 z m -16.0514,-1.58253 q 0.33911,-7.68659 -4.06937,-11.64292 -4.29545,-3.956328 -10.62558,-3.956328 -6.44316,0 -10.85165,3.956328 -4.40848,3.95633 -4.86063,11.64292 z" />
          </g>
        </g>
      </g>
    </g>
  </g>
</svg>
