<?xml version="1.0" encoding="UTF-8" standalone="no"?>
<svg
   xmlns:dc="http://purl.org/dc/elements/1.1/"
   xmlns:cc="http://creativecommons.org/ns#"
   xmlns:rdf="http://www.w3.org/1999/02/22-rdf-syntax-ns#"
   xmlns:svg="http://www.w3.org/2000/svg"
   xmlns="http://www.w3.org/2000/svg"
   xmlns:sodipodi="http://sodipodi.sourceforge.net/DTD/sodipodi-0.dtd"
   xmlns:inkscape="http://www.inkscape.org/namespaces/inkscape"
   width="91.425003"
   height="132.05901"
   viewBox="0 0 91.424999 132.059"
   version="1.1"
   id="svg24"
   sodipodi:docname="front.svg"
   inkscape:version="0.92.4 (5da689c313, 2019-01-14)">
  <metadata
     id="metadata30">
    <rdf:RDF>
      <cc:Work
         rdf:about="">
        <dc:format>image/svg+xml</dc:format>
        <dc:type
           rdf:resource="http://purl.org/dc/dcmitype/StillImage" />
        <dc:title></dc:title>
      </cc:Work>
    </rdf:RDF>
  </metadata>
  <defs
     id="defs28" />
  <sodipodi:namedview
     pagecolor="#ffffff"
     bordercolor="#666666"
     borderopacity="1"
     objecttolerance="10"
     gridtolerance="10"
     guidetolerance="10"
     inkscape:pageopacity="0"
     inkscape:pageshadow="2"
     inkscape:window-width="1920"
     inkscape:window-height="1051"
     id="namedview26"
     showgrid="false"
     inkscape:zoom="7.2606695"
     inkscape:cx="27.323274"
     inkscape:cy="93.059481"
     inkscape:window-x="1341"
     inkscape:window-y="552"
     inkscape:window-maximized="1"
     inkscape:current-layer="svg24" />
  <g
     transform="rotate(90,93.567,57.225)"
     id="g22">
    <path
       d="M 65.548,150.792 H 52.85 a 7.627,7.627 0 0 1 -7.619,-7.619 v -6.349 a 1.27,1.27 0 1 1 2.539,0 v 6.349 a 5.086,5.086 0 0 0 5.08,5.079 h 12.7 a 5.085,5.085 0 0 0 5.079,-5.079 v -3.809 a 1.27,1.27 0 1 1 2.539,0 v 3.809 a 7.627,7.627 0 0 1 -7.62,7.619 z"
       id="path2"
       inkscape:connector-curvature="0"
       style="fill:#263238" />
    <path
       d="M 151.893,150.792 H 139.2 a 7.627,7.627 0 0 1 -7.618,-7.619 v -3.809 a 1.27,1.27 0 1 1 2.539,0 v 3.809 a 5.085,5.085 0 0 0 5.079,5.079 h 12.7 a 5.085,5.085 0 0 0 5.079,-5.079 v -6.349 a 1.27,1.27 0 1 1 2.54,0 v 6.349 a 7.627,7.627 0 0 1 -7.626,7.619 z"
       id="path4"
       inkscape:connector-curvature="0"
       style="fill:#263238" />
    <path
       d="M 148.992,135.554 H 55.751 A 13.965,13.965 0 0 1 41.888,119.9 l 2,-16.507 A 13.979,13.979 0 0 1 57.753,91.111 h 89.237 a 13.976,13.976 0 0 1 13.866,12.289 l 2,16.5 a 13.965,13.965 0 0 1 -13.866,15.649 z m -91.239,-41.9 a 11.442,11.442 0 0 0 -11.347,10.054 l -2,16.507 a 11.427,11.427 0 0 0 11.344,12.8 h 93.241 a 11.43,11.43 0 0 0 11.346,-12.8 l -2,-16.507 A 11.44,11.44 0 0 0 146.99,93.651 Z"
       id="path6"
       inkscape:connector-curvature="0"
       style="fill:#263238" />
    <path
       d="m 150.624,93.651 h -96.5 a 1.272,1.272 0 0 1 -1.145,-1.82 L 64.759,67.288 A 14.044,14.044 0 0 1 77.353,59.367 H 127.4 a 14.043,14.043 0 0 1 12.591,7.921 l 11.78,24.543 a 1.272,1.272 0 0 1 -1.145,1.82 z M 56.138,91.111 H 148.6 L 137.7,68.389 A 11.482,11.482 0 0 0 127.4,61.906 H 77.348 a 11.486,11.486 0 0 0 -10.3,6.483 z"
       id="path8"
       inkscape:connector-curvature="0"
       style="fill:#263238" />
    <path
       d="m 138.516,86.032 a 1.273,1.273 0 0 1 -1.146,-0.719 l -6.54,-13.625 a 3.824,3.824 0 0 0 -3.432,-2.163 1.27,1.27 0 1 1 0,-2.54 6.387,6.387 0 0 1 5.724,3.6 l 6.54,13.626 a 1.269,1.269 0 0 1 -1.146,1.82 z"
       id="path10"
       inkscape:connector-curvature="0"
       style="fill:#263238" />
    <path
       d="m 46.5,93.651 h -6.348 a 3.814,3.814 0 0 1 -3.81,-3.809 v -6.349 a 3.814,3.814 0 0 1 3.81,-3.81 h 6.336 a 7.578,7.578 0 0 1 7.438,5.967 1.2702363,1.2702363 0 1 1 -2.48,0.551 5.051,5.051 0 0 0 -4.958,-3.978 h -6.336 a 1.272,1.272 0 0 0 -1.27,1.27 v 6.349 a 1.272,1.272 0 0 0 1.27,1.269 H 46.5 a 1.27,1.27 0 1 1 0,2.54 z"
       id="path12"
       inkscape:connector-curvature="0"
       style="fill:#263238" />
    <path
       d="m 164.591,93.651 h -6.349 a 1.27,1.27 0 1 1 0,-2.54 h 6.349 a 1.272,1.272 0 0 0 1.27,-1.269 v -6.349 a 1.272,1.272 0 0 0 -1.27,-1.27 h -6.334 a 5.045,5.045 0 0 0 -4.957,3.977 1.271,1.271 0 1 1 -2.481,-0.551 7.573,7.573 0 0 1 7.438,-5.967 h 6.334 a 3.814,3.814 0 0 1 3.81,3.81 v 6.349 a 3.814,3.814 0 0 1 -3.81,3.81 z"
       id="path14"
       inkscape:connector-curvature="0"
       style="fill:#263238" />
    <path
       d="M 118.39,119.682 H 86.355 a 3.828,3.828 0 0 1 -3.566,-2.47 l -1.9,-5.08 a 3.811,3.811 0 0 1 3.567,-5.148 H 120.3 a 3.806,3.806 0 0 1 3.564,5.148 l -1.9,5.08 a 3.822,3.822 0 0 1 -3.574,2.47 z M 84.451,109.523 a 1.271,1.271 0 0 0 -1.191,1.717 l 1.9,5.079 a 1.277,1.277 0 0 0 1.19,0.823 h 32.04 a 1.271,1.271 0 0 0 1.186,-0.821 l 1.907,-5.081 a 1.272,1.272 0 0 0 -1.188,-1.717 z"
       id="path16"
       inkscape:connector-curvature="0"
       style="fill:#263238" />
    <path
       d="m 143.005,124.761 a 11.428,11.428 0 1 1 11.428,-11.428 11.44,11.44 0 0 1 -11.428,11.428 z m 0,-20.317 a 8.889,8.889 0 1 0 8.888,8.889 8.9,8.9 0 0 0 -8.888,-8.889 z"
       id="path18"
       inkscape:connector-curvature="0"
       style="fill:#263238" />
    <path
       d="m 61.738,124.761 a 11.428,11.428 0 1 1 11.428,-11.428 11.44,11.44 0 0 1 -11.428,11.428 z m 0,-20.317 a 8.889,8.889 0 1 0 8.889,8.889 8.9,8.9 0 0 0 -8.889,-8.889 z"
       id="path20"
       inkscape:connector-curvature="0"
       style="fill:#263238" />
  </g>
</svg>
