<?xml version="1.0" encoding="UTF-8" standalone="no"?>
<svg
   xmlns:dc="http://purl.org/dc/elements/1.1/"
   xmlns:cc="http://creativecommons.org/ns#"
   xmlns:rdf="http://www.w3.org/1999/02/22-rdf-syntax-ns#"
   xmlns:svg="http://www.w3.org/2000/svg"
   xmlns="http://www.w3.org/2000/svg"
   xmlns:sodipodi="http://sodipodi.sourceforge.net/DTD/sodipodi-0.dtd"
   xmlns:inkscape="http://www.inkscape.org/namespaces/inkscape"
   width="56.907082"
   height="110.19116"
   viewBox="0 0 56.907081 110.19116"
   version="1.1"
   id="svg62"
   sodipodi:docname="odometer.svg"
   inkscape:version="0.92.4 (5da689c313, 2019-01-14)">
  <metadata
     id="metadata68">
    <rdf:RDF>
      <cc:Work
         rdf:about="">
        <dc:format>image/svg+xml</dc:format>
        <dc:type
           rdf:resource="http://purl.org/dc/dcmitype/StillImage" />
        <dc:title></dc:title>
      </cc:Work>
    </rdf:RDF>
  </metadata>
  <defs
     id="defs66" />
  <sodipodi:namedview
     pagecolor="#ffffff"
     bordercolor="#666666"
     borderopacity="1"
     objecttolerance="10"
     gridtolerance="10"
     guidetolerance="10"
     inkscape:pageopacity="0"
     inkscape:pageshadow="2"
     inkscape:window-width="2400"
     inkscape:window-height="1321"
     id="namedview64"
     showgrid="false"
     inkscape:zoom="3.0772582"
     inkscape:cx="11.731675"
     inkscape:cy="55.080539"
     inkscape:window-x="3741"
     inkscape:window-y="552"
     inkscape:window-maximized="1"
     inkscape:current-layer="svg62" />
  <g
     transform="rotate(90,88.510053,-6.0910526)"
     id="g60">
    <g
       transform="translate(119.232,25.543)"
       id="g4">
      <path
         d="m 155.711,82.419 a 0.825,0.825 0 0 1 -0.418,-1.535 28.831,28.831 0 1 0 -29.1,0 0.824,0.824 0 0 1 -0.834,1.421 30.48,30.48 0 1 1 30.767,0 0.82,0.82 0 0 1 -0.415,0.114 z"
         transform="translate(-110.264,-25.543)"
         id="path2"
         inkscape:connector-curvature="0"
         style="fill:#263238" />
    </g>
    <g
       transform="translate(124.174,30.487)"
       id="g8">
      <path
         d="m 148.057,78.457 a 0.781,0.781 0 0 1 -0.154,-0.016 46.019,46.019 0 0 0 -17.258,0 0.821,0.821 0 0 1 -0.445,-0.038 25.537,25.537 0 1 1 18.148,0 0.815,0.815 0 0 1 -0.291,0.054 z m -8.782,-47.791 a 23.876,23.876 0 0 0 -8.7,46.114 47.537,47.537 0 0 1 17.406,0 23.876,23.876 0 0 0 -8.7,-46.114 z"
         transform="translate(-113.738,-29.018)"
         id="path6"
         inkscape:connector-curvature="0"
         style="fill:#263238" />
    </g>
    <g
       transform="translate(145.592,53.19)"
       id="g14">
      <circle
         cx="3.2950001"
         cy="3.2950001"
         r="3.2950001"
         transform="translate(0.824,0.824)"
         id="circle10"
         style="fill:#ffffff" />
      <path
         d="m 132.913,52.311 a 4.119,4.119 0 1 1 4.118,-4.12 4.124,4.124 0 0 1 -4.118,4.12 z m 0,-6.591 a 2.472,2.472 0 1 0 2.471,2.471 2.474,2.474 0 0 0 -2.471,-2.471 z"
         transform="translate(-128.793,-44.073)"
         id="path12"
         inkscape:connector-curvature="0"
         style="fill:#263238" />
    </g>
    <g
       transform="translate(148.888,40.371)"
       id="g18">
      <path
         d="M 131.934,49.146 A 0.823,0.823 0 0 1 131.11,48.322 V 36.79 a 0.824,0.824 0 0 1 1.647,0 v 11.533 a 0.823,0.823 0 0 1 -0.823,0.823 z"
         transform="translate(-131.11,-35.966)"
         id="path16"
         inkscape:connector-curvature="0"
         style="fill:#263238" />
    </g>
    <g
       transform="translate(141.473,66.116)"
       id="g22">
      <path
         d="m 139.9,59.349 h -11.531 a 2.473,2.473 0 0 1 -2.471,-2.471 V 55.23 a 2.473,2.473 0 0 1 2.471,-2.471 H 139.9 a 2.473,2.473 0 0 1 2.471,2.471 v 1.647 a 2.473,2.473 0 0 1 -2.471,2.472 z m -11.533,-4.942 a 0.825,0.825 0 0 0 -0.824,0.824 v 1.647 a 0.824,0.824 0 0 0 0.824,0.824 H 139.9 a 0.823,0.823 0 0 0 0.824,-0.824 V 55.23 A 0.824,0.824 0 0 0 139.9,54.406 Z"
         transform="translate(-125.898,-52.759)"
         id="path20"
         inkscape:connector-curvature="0"
         style="fill:#263238" />
    </g>
    <g
       transform="translate(148.888,30.487)"
       id="g26">
      <path
         d="M 131.934,34.784 A 0.823,0.823 0 0 1 131.11,33.96 v -4.118 a 0.824,0.824 0 1 1 1.647,0 v 4.118 a 0.823,0.823 0 0 1 -0.823,0.824 z"
         transform="translate(-131.11,-29.018)"
         id="path24"
         inkscape:connector-curvature="0"
         style="fill:#263238" />
    </g>
    <g
       transform="translate(130.662,37.724)"
       id="g30">
      <path
         d="m 122.562,38.666 a 0.815,0.815 0 0 1 -0.582,-0.242 l -2.914,-2.912 a 0.82342592,0.82342592 0 0 1 1.165,-1.164 l 2.913,2.912 a 0.824,0.824 0 0 1 -0.583,1.406 z"
         transform="translate(-118.826,-34.106)"
         id="path28"
         inkscape:connector-curvature="0"
         style="fill:#263238" />
    </g>
    <g
       transform="translate(123.101,56.549)"
       id="g34">
      <path
         d="m 118.68,48.038 h -4.118 a 0.8245,0.8245 0 0 1 0,-1.649 h 4.118 a 0.8245,0.8245 0 0 1 0,1.649 z"
         transform="translate(-113.738,-46.389)"
         id="path32"
         inkscape:connector-curvature="0"
         style="fill:#263238" />
    </g>
    <g
       transform="translate(170.554,56.549)"
       id="g38">
      <path
         d="m 150.528,48.038 h -4.118 a 0.8245,0.8245 0 0 1 0,-1.649 h 4.118 a 0.8245,0.8245 0 0 1 0,1.649 z"
         transform="translate(-145.586,-46.389)"
         id="path36"
         inkscape:connector-curvature="0"
         style="fill:#263238" />
    </g>
    <g
       transform="translate(164.198,37.724)"
       id="g42">
      <path
         d="m 142.17,38.666 a 0.824,0.824 0 0 1 -0.583,-1.406 l 2.914,-2.912 a 0.82342592,0.82342592 0 1 1 1.165,1.164 l -2.913,2.912 a 0.815,0.815 0 0 1 -0.583,0.242 z"
         transform="translate(-141.346,-34.106)"
         id="path40"
         inkscape:connector-curvature="0"
         style="fill:#263238" />
    </g>
    <g
       transform="translate(102.867,58.374)"
       id="g46">
      <path
         d="m 107.833,55.785 a 0.815,0.815 0 0 1 -0.582,-0.242 l -6.591,-6.59 a 0.824,0.824 0 0 1 1.165,-1.165 l 6.591,6.591 a 0.824,0.824 0 0 1 -0.583,1.406 z"
         transform="translate(-100.419,-47.548)"
         id="path44"
         inkscape:connector-curvature="0"
         style="fill:#263238" />
    </g>
    <g
       transform="translate(188.317,55.554)"
       id="g50">
      <path
         d="m 157.991,56.6 a 0.823,0.823 0 0 1 -0.824,-0.824 v -9.32 a 0.824,0.824 0 1 1 1.647,0 v 9.32 a 0.823,0.823 0 0 1 -0.823,0.824 z"
         transform="translate(-157.167,-45.629)"
         id="path48"
         inkscape:connector-curvature="0"
         style="fill:#263238" />
    </g>
    <g
       transform="translate(94.629,50.109)"
       id="g54">
      <path
         d="m 110.281,73.06 a 15.652,15.652 0 1 1 4.924,-30.5 0.82330022,0.82330022 0 1 1 -0.518,1.563 14,14 0 1 0 5.207,23.452 0.82483695,0.82483695 0 0 1 1.132,1.2 15.585,15.585 0 0 1 -10.745,4.285 z"
         transform="translate(-94.629,-41.757)"
         id="path52"
         inkscape:connector-curvature="0"
         style="fill:#263238" />
    </g>
    <g
       transform="translate(178.138,50.109)"
       id="g58">
      <path
         d="m 161.015,73.06 a 15.585,15.585 0 0 1 -10.745,-4.289 0.82483695,0.82483695 0 1 1 1.132,-1.2 14.005,14.005 0 1 0 5.207,-23.452 0.82330022,0.82330022 0 1 1 -0.518,-1.563 15.648,15.648 0 1 1 4.924,30.5 z"
         transform="translate(-150.012,-41.757)"
         id="path56"
         inkscape:connector-curvature="0"
         style="fill:#263238" />
    </g>
  </g>
</svg>
